<?xml version="1.0" standalone="no"?>
<!DOCTYPE svg PUBLIC "-//W3C//DTD SVG 20010904//EN"
 "http://www.w3.org/TR/2001/REC-SVG-20010904/DTD/svg10.dtd">
<svg version="1.0" xmlns="http://www.w3.org/2000/svg"
 width="512.000000pt" height="512.000000pt" viewBox="0 0 512.000000 512.000000"
 preserveAspectRatio="xMidYMid meet">
<metadata>
Created by potrace 1.14, written by Peter Selinger 2001-2017
</metadata>
<g transform="translate(0.000000,512.000000) scale(0.100000,-0.100000)"
fill="#000000" stroke="none">
<path d="M81 5071 c-31 -46 -55 -66 -73 -63 -4 1 -8 -1125 -8 -2503 l0 -2505
111 0 c104 0 114 2 145 25 23 17 35 22 40 13 5 -7 3 -8 -6 -3 -9 6 -11 4 -5
-5 6 -9 4 -11 -5 -5 -9 6 -11 4 -5 -5 5 -9 4 -11 -3 -6 -7 4 -12 2 -12 -3 0
-19 16 -12 46 21 16 18 22 28 14 23 -9 -6 -5 0 9 12 14 12 29 19 34 16 6 -3 7
-2 4 3 -6 10 56 57 80 60 12 2 11 -1 -3 -17 -9 -10 -14 -22 -11 -26 4 -3 7 -1
7 6 0 6 11 16 25 21 14 5 25 14 25 20 0 14 37 13 42 -2 3 -9 6 -9 12 0 4 8 -2
16 -18 22 -37 14 -32 19 10 10 34 -8 36 -7 50 26 16 38 25 45 17 13 -6 -21 -5
-21 16 -3 26 23 27 45 2 41 -29 -4 -50 -27 -44 -45 5 -14 3 -15 -7 -5 -11 11
-10 17 10 38 13 14 26 23 28 20 3 -3 11 3 19 13 8 9 12 11 8 5 -3 -7 -1 -13 4
-13 6 0 11 8 11 18 0 13 2 14 9 3 6 -9 18 -11 35 -7 15 4 24 11 21 16 -3 5 5
12 17 16 24 7 38 22 38 39 0 6 -5 3 -11 -5 -9 -13 -10 -13 -6 0 2 8 12 14 23
13 12 -2 51 28 109 83 50 47 81 81 70 75 -11 -5 -31 -20 -45 -33 -14 -13 -42
-38 -63 -55 -20 -18 -36 -36 -35 -40 1 -5 -6 -9 -15 -11 -9 -2 -17 2 -17 8 0
6 5 8 12 4 6 -4 8 -3 5 3 -4 6 20 34 53 63 61 54 118 147 139 225 17 68 22
180 11 267 -9 74 -55 269 -75 323 -6 16 -1 13 24 -10 35 -33 126 -210 162
-315 12 -36 34 -126 49 -200 45 -214 31 -374 -38 -470 -10 -14 -29 -46 -42
-72 -28 -58 -136 -171 -153 -162 -7 4 -9 3 -4 -1 4 -5 0 -17 -10 -27 -16 -17
-11 -18 130 -18 124 0 147 2 147 15 0 8 5 15 10 15 6 0 10 8 10 17 0 9 8 25
17 36 10 10 25 42 33 70 13 42 14 56 4 72 -10 16 -9 37 6 110 20 98 21 321 2
383 -19 58 4 34 42 -45 55 -116 106 -208 106 -191 0 8 -20 52 -44 99 -72 138
-72 136 46 72 57 -31 114 -63 128 -73 14 -9 39 -24 55 -32 17 -8 75 -41 130
-72 55 -32 143 -80 195 -106 130 -64 197 -109 252 -168 27 -28 48 -55 49 -59
0 -4 2 -17 4 -28 16 -88 15 -92 -8 -103 -16 -8 88 -11 393 -11 l415 -1 -62 38
c-50 30 -63 42 -62 62 0 47 69 135 132 170 74 42 292 186 306 203 7 9 17 17
22 17 5 0 60 38 123 85 63 47 119 85 124 85 5 0 29 15 53 33 39 30 279 125
279 111 0 -2 -80 -87 -177 -187 -305 -314 -340 -361 -330 -449 3 -26 14 -70
24 -98 16 -45 16 -52 3 -60 -12 -8 -9 -10 13 -10 15 0 27 1 27 3 0 1 -12 34
-25 72 -56 158 -40 188 260 489 299 301 486 480 508 489 10 4 15 12 11 18 -4
7 -1 10 6 7 8 -2 22 4 32 14 9 9 24 15 32 12 9 -3 21 6 32 25 13 22 21 27 30
20 10 -8 9 -21 -3 -62 -21 -71 -159 -346 -191 -379 -14 -16 -22 -28 -18 -28 4
0 -2 -16 -14 -35 -12 -19 -18 -40 -14 -46 4 -8 3 -9 -5 -5 -29 18 -192 -399
-195 -496 -1 -33 -4 -42 -10 -31 -14 26 1 260 22 343 10 41 25 100 31 130 14
61 36 116 51 125 6 4 8 11 4 16 -3 5 8 23 25 39 18 16 27 31 21 35 -5 3 -10 1
-10 -4 0 -6 -11 -11 -24 -11 -18 0 -37 -16 -70 -57 -25 -32 -56 -68 -67 -79
-12 -12 -19 -28 -16 -35 3 -9 8 -6 15 11 10 24 11 24 11 3 1 -13 -3 -23 -8
-23 -9 0 -52 -75 -50 -88 1 -4 1 -14 0 -22 -1 -13 -2 -13 -11 0 -11 18 -25 7
-17 -14 4 -9 13 -13 21 -10 19 7 30 -75 18 -139 -11 -53 -8 -242 3 -269 11
-27 53 -23 58 5 l4 22 2 -22 c1 -21 6 -23 66 -23 59 0 65 2 70 22 2 13 16 86
30 162 21 113 36 161 76 250 28 61 60 134 72 161 l22 50 6 -30 c4 -16 7 -49 8
-72 1 -38 -4 -46 -54 -94 -30 -28 -55 -56 -55 -60 0 -13 57 -3 84 15 14 9 27
16 29 16 2 0 7 -68 11 -150 7 -143 6 -152 -14 -185 -12 -19 -35 -46 -51 -60
l-31 -25 60 0 59 0 17 77 c47 210 68 314 82 416 20 143 53 326 99 544 8 40 15
86 15 102 0 17 4 31 10 31 5 0 7 7 3 16 -3 9 0 20 8 25 11 7 11 11 2 17 -13 8
-14 52 -1 52 4 0 8 -9 8 -20 0 -14 7 -20 23 -21 12 0 16 -3 10 -6 -16 -6 -17
-53 -2 -53 7 0 9 -10 5 -28 -7 -32 -39 -359 -40 -414 -1 -21 -4 -38 -8 -38
-11 0 -9 -64 5 -145 8 -42 16 -65 20 -57 14 22 27 13 27 -19 0 -31 18 -33 19
-1 0 9 3 32 7 49 4 21 2 33 -4 33 -6 0 -13 -10 -15 -22 -2 -13 -5 -6 -6 17 0
22 4 57 10 78 10 39 4 81 -11 72 -13 -8 -17 93 -7 205 5 58 9 129 9 158 l1 52
38 0 c28 0 39 -4 39 -15 0 -8 -5 -15 -11 -15 -5 0 -7 -5 -4 -10 10 -15 52 -12
59 5 8 22 36 7 36 -20 0 -13 -3 -25 -7 -28 -5 -2 -2 -2 5 0 9 2 11 -3 7 -18
-6 -17 -4 -20 6 -13 11 6 12 5 3 -7 -6 -8 -12 -21 -12 -29 -6 -73 -56 -304
-68 -317 -6 -7 -11 -27 -9 -45 1 -18 -2 -44 -8 -58 -5 -14 -9 -35 -8 -48 1
-27 -37 -174 -47 -182 -11 -8 -62 -192 -56 -202 3 -4 0 -8 -5 -8 -6 0 -11 -7
-11 -15 0 -8 -4 -15 -10 -15 -5 0 -7 14 -4 33 4 24 3 28 -5 17 -6 -8 -11 -33
-12 -55 l-2 -40 -6 35 c-6 29 -8 32 -14 15 -4 -11 -9 -35 -11 -53 l-3 -32 283
0 283 0 21 47 c18 40 20 63 18 167 l-3 121 -54 -83 c-30 -45 -55 -82 -56 -82
-7 0 53 333 81 446 30 123 34 158 34 265 l-1 124 -34 -91 c-41 -108 -57 -138
-72 -141 -13 -3 -8 58 6 86 5 9 12 34 15 56 4 22 13 49 20 60 7 11 24 52 37
90 l24 70 3 1795 c3 1951 5 1835 -50 1928 -21 35 -48 43 -48 15 0 -15 -2 -16
-10 -3 -8 12 -10 12 -10 -5 0 -18 -2 -18 -20 5 l-19 25 5 -25 5 -25 -15 25
c-18 29 -18 29 -22 -80 -1 -36 -3 -75 -3 -87 -1 -26 -19 -31 -27 -8 -4 8 -10
12 -15 9 -5 -3 -25 28 -44 68 -39 80 -45 77 -16 -7 18 -50 18 -65 1 -65 -4 0
-18 25 -31 55 -13 30 -27 55 -30 55 -4 0 -10 17 -13 38 -10 50 -38 145 -47
156 -14 16 -21 -41 -10 -80 14 -49 14 -55 -1 -51 -23 4 -19 -35 17 -176 19
-78 42 -166 49 -194 14 -56 6 -73 -12 -25 -6 15 -33 92 -60 172 -28 80 -77
213 -111 296 -34 83 -61 157 -61 163 0 6 -9 11 -21 11 -13 0 -19 -5 -16 -13 3
-7 17 -51 31 -97 32 -99 41 -160 25 -160 -8 0 -9 -13 -4 -42 3 -24 9 -59 12
-78 l5 -35 -26 34 c-14 19 -26 40 -26 46 0 7 -9 22 -20 35 -11 13 -20 30 -21
39 0 9 -5 4 -11 -11 -6 -19 -6 -50 1 -95 11 -70 9 -83 -14 -83 -9 0 -16 17
-20 48 -19 148 -47 213 -61 143 -4 -17 -10 -31 -15 -31 -5 0 -9 -7 -9 -15 0
-8 -5 -15 -11 -15 -6 0 -10 -22 -9 -57 2 -80 2 -83 -13 -83 -8 0 -12 -11 -11
-27 1 -19 6 -28 17 -27 9 1 15 -2 12 -6 -3 -5 -1 -11 4 -14 8 -6 41 -129 41
-155 0 -6 -4 -11 -10 -11 -5 0 -10 12 -10 28 0 36 -25 105 -39 110 -6 2 -8 8
-5 14 3 5 -3 16 -13 23 -26 18 -54 98 -97 274 -19 79 -39 147 -45 150 -5 3
-15 28 -23 55 -8 28 -20 52 -26 54 -14 4 -16 -35 -3 -40 5 -1 20 -41 32 -88
12 -47 24 -87 28 -90 11 -9 14 -140 3 -140 -6 0 -13 8 -16 18 -3 9 -3 0 0 -21
4 -26 2 -37 -5 -32 -6 3 -11 0 -11 -8 0 -8 -7 -27 -15 -43 -15 -30 -16 -29
-33 41 -9 38 -10 38 -12 10 -1 -29 -2 -29 -15 10 l-13 40 -3 -35 c-1 -19 -1
-46 0 -58 1 -15 -2 -21 -8 -17 -6 3 -11 12 -11 18 -1 29 -17 38 -54 32 -39 -8
-53 -37 -14 -32 15 3 34 -7 56 -29 29 -29 32 -36 27 -68 -6 -28 -10 -34 -22
-27 -22 12 -63 1 -64 -18 0 -12 -2 -11 -9 4 -8 18 -9 17 -9 -7 -1 -35 -18 -36
-27 -3 -3 14 -9 25 -13 25 -4 0 -22 46 -40 103 -50 156 -83 248 -88 243 -2 -2
0 -21 6 -43 13 -45 14 -133 3 -133 -5 0 -20 32 -33 70 -47 140 -28 50 36 -165
66 -224 85 -303 66 -275 -5 8 -13 32 -16 52 -4 21 -11 38 -16 38 -5 0 -9 5 -9
11 0 6 -7 25 -15 42 -8 18 -24 57 -35 87 -12 30 -27 62 -35 70 -7 8 -20 29
-28 45 -24 45 -20 9 9 -91 50 -171 62 -216 54 -207 -8 9 -57 157 -90 273 -55
195 -125 388 -153 428 -6 8 -39 12 -98 12 l-88 0 9 -27 c27 -82 61 -448 59
-623 l-1 -65 -18 102 c-10 56 -21 111 -25 122 -8 27 -25 27 -25 1 0 -11 -5
-20 -10 -20 -6 0 -14 -10 -19 -21 -5 -14 -18 -23 -37 -25 -16 -2 -38 -5 -49
-6 -17 -3 -21 4 -26 47 -5 47 -6 48 -7 11 -2 -37 -3 -38 -21 -22 -18 16 -51
13 -51 -6 0 -5 -4 -6 -10 -3 -5 3 -10 17 -10 30 0 13 -5 27 -10 30 -7 4 -8 -7
-4 -33 5 -32 2 -44 -14 -60 -19 -19 -22 -19 -42 -5 -18 13 -24 13 -30 3 -9
-14 -18 35 -23 120 -1 25 -6 -13 -10 -85 -4 -71 -12 -146 -16 -165 -10 -47
-21 194 -19 430 1 96 -1 196 -6 223 l-7 47 -55 0 -54 0 0 -267 c0 -265 -10
-361 -24 -230 -9 83 -36 114 -36 42 0 -38 -4 -48 -19 -52 -11 -3 -22 -12 -24
-22 -4 -14 -5 -14 -6 2 -1 23 -49 23 -66 0 -19 -26 -45 0 -45 46 0 53 -19 78
-21 26 l-1 -40 -13 30 c-8 17 -14 24 -15 18 0 -26 -20 -12 -21 15 0 18 -5 10
-13 -26 -14 -58 -26 -78 -26 -44 0 15 -5 20 -15 16 -8 -4 -15 -12 -15 -19 0
-12 -21 -25 -41 -25 -5 0 -9 27 -9 60 l0 60 -24 -15 c-15 -10 -26 -30 -31 -53
-9 -55 -16 -73 -23 -68 -4 2 -6 -13 -4 -35 3 -24 0 -39 -7 -39 -6 0 -12 17
-12 38 -1 37 -1 37 -9 -9 -13 -77 -21 -367 -10 -374 6 -3 10 -35 10 -71 0 -36
4 -64 10 -64 6 0 11 52 12 133 1 72 3 111 5 84 2 -26 7 -46 11 -43 4 2 6 -33
5 -77 l-1 -82 11 90 c9 68 16 90 27 90 10 0 17 14 21 45 l6 45 1 -39 2 -39 38
7 c20 3 47 6 59 6 18 0 22 7 26 43 2 23 4 3 5 -45 1 -49 6 -88 10 -88 4 0 8
-12 9 -27 2 -64 16 -144 23 -133 4 7 5 21 2 32 -3 13 1 24 12 30 9 5 16 18 16
28 0 11 4 20 10 20 5 0 8 -17 6 -38 -2 -20 1 -46 5 -57 5 -12 8 12 10 65 l2
85 12 -60 13 -60 -5 95 c-3 52 -10 101 -16 108 -8 10 -8 15 0 20 6 4 12 16 14
27 5 24 69 33 69 9 0 -8 -4 -14 -10 -14 -5 0 -10 -9 -10 -20 0 -11 7 -20 15
-20 11 0 15 -12 16 -42 0 -32 2 -38 8 -23 9 22 9 20 15 -255 6 -319 7 -354 17
-441 6 -47 11 -155 13 -240 3 -171 31 -460 46 -490 6 -10 15 -65 21 -121 5
-57 20 -166 33 -243 13 -77 23 -141 21 -143 -1 -1 -18 33 -39 77 -25 54 -46
123 -66 222 -34 163 -40 190 -69 274 -11 33 -23 73 -26 89 -3 15 -8 27 -10 24
-2 -2 0 -21 5 -43 5 -22 21 -103 35 -180 14 -77 34 -180 45 -230 19 -90 33
-298 20 -290 -17 10 -91 145 -86 154 4 6 2 18 -3 28 -5 10 -15 38 -22 63 -22
79 -49 161 -69 204 -10 22 -24 65 -31 94 -7 29 -16 49 -21 44 -7 -7 56 -265
86 -349 8 -24 13 -43 9 -43 -3 0 0 -7 7 -15 7 -9 14 -23 15 -33 1 -16 5 -29
27 -82 12 -30 5 -23 -55 57 -48 63 -154 239 -159 264 -2 8 -6 16 -9 19 -13 11
-48 88 -42 94 4 3 1 6 -6 6 -8 0 -11 6 -7 16 3 8 2 13 -3 10 -4 -3 -13 6 -20
21 -10 21 -9 28 1 34 10 6 8 12 -7 24 -11 9 -14 14 -7 10 17 -9 17 -10 -34
132 -51 139 -71 206 -110 358 -27 106 -48 157 -39 95 2 -19 9 -73 15 -120 6
-47 13 -93 16 -103 3 -11 7 -29 9 -40 9 -65 55 -230 65 -237 4 -3 12 -34 19
-70 15 -91 66 -292 80 -317 6 -12 11 -28 11 -35 -1 -20 -26 30 -84 170 -77
186 -79 190 -70 203 4 7 3 10 -3 6 -9 -6 -46 82 -48 113 -1 28 -51 267 -65
315 -11 36 -38 190 -46 260 -3 28 -8 53 -10 56 -7 11 -26 234 -25 294 1 32 6
64 11 69 6 6 11 28 11 51 1 22 3 32 6 23 2 -10 9 -18 14 -18 11 0 13 30 9 134
-2 56 1 77 9 72 6 -4 11 -38 12 -79 1 -40 5 -83 9 -97 7 -23 13 46 15 171 0
20 5 36 11 36 8 0 10 -15 7 -41 -3 -31 -2 -37 6 -26 9 12 11 11 12 -10 1 -24
1 -24 9 4 5 15 10 92 11 170 1 77 6 179 10 226 3 47 10 190 14 318 6 230 6
232 -14 232 -17 0 -21 -6 -21 -32 0 -18 -5 -51 -12 -73 l-12 -40 -5 30 c-5 23
-13 32 -39 40 -31 9 -33 12 -29 42 l6 33 -98 0 c-86 0 -99 -2 -103 -18 -3 -10
1 -23 9 -30 10 -10 13 -10 13 2 0 8 5 18 12 22 7 4 8 3 4 -4 -4 -7 -1 -12 9
-12 9 0 13 -5 10 -11 -4 -5 -4 -21 -1 -34 5 -20 14 -24 77 -30 80 -8 108 -28
130 -93 22 -66 -22 -157 -72 -148 -13 2 -36 5 -51 5 -15 1 -33 8 -41 16 -8 8
-17 11 -21 8 -3 -4 -6 3 -6 15 0 27 -5 27 -38 2 -16 -13 -28 -17 -32 -10 -10
17 -71 -10 -106 -47 -26 -27 -35 -50 -49 -121 -9 -48 -23 -107 -31 -132 -13
-44 -13 -44 -9 40 3 47 9 122 13 167 7 83 6 107 -6 99 -4 -2 -7 19 -6 47 1
103 -10 106 -35 11 -20 -80 -26 -91 -52 -103 -15 -7 -27 -18 -26 -24 2 -11
-10 -13 -79 -16 -21 0 -33 -5 -29 -11 3 -5 -3 -10 -13 -10 -11 0 -22 -9 -25
-20 -3 -13 -10 -18 -21 -14 -9 3 -14 9 -11 13 2 4 -3 18 -12 31 l-16 22 -25
-32 c-17 -21 -31 -30 -43 -27 -12 3 -23 -2 -30 -15 -6 -11 -19 -28 -30 -39
-10 -10 -19 -23 -19 -29 0 -5 -8 -10 -19 -10 -15 0 -20 -10 -26 -47 -4 -26
-12 -52 -19 -58 -11 -8 -55 -137 -91 -263 -4 -13 -9 -21 -12 -19 -8 8 124 528
161 635 18 53 50 139 70 191 20 51 36 95 36 98 0 2 -26 3 -57 1 l-57 -3 -69
-140 c-38 -77 -70 -146 -72 -155 -12 -56 -108 -280 -121 -280 -3 0 -4 11 -2
24 6 32 -5 49 -34 53 -51 7 -68 14 -93 41 -14 15 -25 21 -25 15 0 -12 -46 -63
-56 -63 -3 0 -3 15 0 33 5 22 -1 14 -18 -26 -14 -31 -31 -64 -40 -72 -8 -8
-17 -41 -21 -72 -9 -79 -13 -92 -25 -73 -8 13 -10 13 -10 0 0 -9 6 -22 13 -30
10 -12 9 -12 -6 0 -23 17 -18 69 19 209 27 100 126 379 168 474 14 32 26 60
26 62 0 3 -26 5 -58 5 l-58 0 -60 -122 c-33 -68 -63 -122 -67 -120 -4 1 -6 4
-4 5 1 2 -3 10 -9 18 -7 8 -11 26 -9 42 2 15 2 27 0 27 -2 0 -16 -27 -32 -60
-28 -61 -43 -75 -43 -41 0 11 -4 23 -10 26 -6 4 -7 -1 -3 -11 4 -12 3 -15 -5
-10 -7 4 -12 3 -12 -3 0 -5 5 -13 10 -16 23 -14 3 -130 -27 -162 -6 -7 -17
-13 -24 -13 -7 0 -20 -6 -28 -14 -16 -14 -40 -20 -71 -17 -9 1 -17 12 -18 27
-3 35 -10 44 -33 44 -10 0 -19 5 -19 10 0 6 11 10 25 10 15 0 25 6 25 14 0 7
-11 16 -25 18 -14 3 -25 2 -25 -3 0 -4 10 -10 23 -12 20 -4 20 -4 -4 -6 -21
-1 -31 -13 -61 -73 -50 -101 -65 -138 -73 -175 -7 -35 -25 -46 -25 -15 0 9 9
57 20 106 11 49 17 93 13 99 -4 6 -1 7 7 2 10 -6 12 -3 8 13 -4 12 -3 22 1 22
12 0 32 76 25 96 -4 14 -3 15 3 6 12 -15 56 114 46 132 -3 6 -2 8 2 3 5 -4 21
26 37 65 32 84 35 103 10 70 -19 -25 -34 -21 -25 6 3 13 1 13 -11 -2 -9 -11
-16 -24 -16 -29 0 -10 -26 -37 -35 -37 -4 0 -5 9 -2 20 3 11 1 23 -4 26 -5 3
-9 0 -9 -5 0 -17 -13 -13 -42 14 -15 14 -33 25 -40 25 -7 0 -28 -22 -47 -49z
m4517 -476 c6 -14 17 -25 23 -25 6 0 9 -9 6 -20 -3 -11 -2 -20 2 -20 15 0 58
-121 90 -254 17 -69 6 -69 -13 1 -9 32 -22 76 -29 98 l-12 40 -3 -37 c-2 -21
3 -52 12 -70 8 -18 17 -44 21 -56 6 -22 5 -23 -14 -13 -16 9 -21 9 -21 -1 -2
-37 -31 66 -40 136 -17 141 -26 190 -38 213 -14 26 -15 33 -4 33 5 0 14 -11
20 -25z m352 -70 c32 -85 79 -293 78 -340 l0 -40 -9 49 c-9 58 -28 108 -39
101 -4 -2 -13 21 -19 53 -7 31 -22 77 -32 101 -11 24 -17 52 -14 62 4 10 1 28
-5 39 -13 24 -5 59 10 44 4 -5 18 -36 30 -69z m-901 20 c0 -5 -4 -3 -9 5 -5 8
-9 22 -9 30 0 16 17 -16 18 -35z m881 -134 c0 -33 -10 -21 -20 26 -8 34 -7 36
6 19 8 -11 14 -31 14 -45z m-550 -20 c0 -6 -4 -13 -10 -16 -5 -3 -10 1 -10 9
0 9 5 16 10 16 6 0 10 -4 10 -9z m557 -33 c-3 -8 -6 -5 -6 6 -1 11 2 17 5 13
3 -3 4 -12 1 -19z m-2600 -110 c-2 -13 -4 -5 -4 17 -1 22 1 32 4 23 2 -10 2
-28 0 -40z m76 35 c-7 -2 -19 -2 -25 0 -7 3 -2 5 12 5 14 0 19 -2 13 -5z m543
-4 c4 -7 23 -9 50 -5 43 5 44 5 43 -22 0 -24 -1 -25 -9 -7 -5 11 -9 14 -9 8
-1 -16 -81 -18 -81 -3 0 6 -19 9 -42 9 l-43 -2 40 -7 40 -7 -37 -2 c-54 -2
-47 -19 10 -26 26 -3 68 -11 93 -16 52 -12 48 0 68 -157 6 -40 15 -98 22 -130
6 -31 10 -72 10 -91 -1 -18 4 -40 11 -49 10 -12 10 -16 1 -19 -15 -5 -17 -39
-3 -48 6 -3 10 -35 10 -71 0 -36 4 -64 10 -64 6 0 10 -9 10 -20 0 -11 -5 -20
-11 -20 -7 0 -10 -22 -7 -65 l5 -65 -96 -1 c-81 -1 -91 -2 -61 -11 19 -5 61
-13 95 -16 l60 -7 3 -137 c1 -76 6 -138 10 -138 4 0 6 -18 4 -41 -3 -22 1 -46
7 -52 13 -13 15 -31 3 -23 -5 3 -9 -10 -10 -29 -1 -19 2 -37 7 -39 5 -3 7 -18
5 -33 -2 -16 -6 -62 -9 -103 -11 -131 -24 -252 -28 -256 -9 -9 -20 162 -22
361 -4 257 -14 445 -25 445 -5 0 -7 -129 -5 -287 2 -206 -1 -317 -11 -390 -7
-57 -16 -145 -20 -195 -4 -51 -10 -124 -13 -163 l-7 -70 -23 60 c-12 33 -25
84 -28 113 -3 28 -10 52 -16 52 -6 0 -8 -22 -4 -57 l5 -58 -25 70 c-13 39 -24
85 -25 104 0 19 -3 29 -7 22 -4 -6 -18 22 -31 64 -13 41 -21 77 -18 80 3 3 13
-21 24 -52 25 -78 28 -49 9 82 -9 61 -16 121 -15 134 0 13 -4 51 -10 85 -14
89 -40 428 -45 596 -12 358 -13 424 -5 404 18 -47 28 -32 28 44 0 42 4 101 7
130 5 34 4 52 -3 52 -7 0 -7 10 -2 28 5 15 14 48 21 75 11 46 13 47 50 47 21
0 41 -5 45 -11z m-769 -31 c-3 -7 -5 -2 -5 12 0 14 2 19 5 13 2 -7 2 -19 0
-25z m330 0 c-3 -7 -5 -2 -5 12 0 14 2 19 5 13 2 -7 2 -19 0 -25z m660 -5 c-3
-10 -5 -4 -5 12 0 17 2 24 5 18 2 -7 2 -21 0 -30z m109 -29 c12 -9 30 -26 39
-40 13 -20 13 -24 1 -24 -7 0 -16 7 -20 15 -3 8 -11 15 -18 15 -9 0 -9 -3 2
-11 11 -8 12 -12 3 -16 -21 -8 -15 -33 7 -33 11 0 20 -4 20 -10 0 -5 8 -10 18
-10 17 0 20 -12 25 -117 4 -65 12 -181 18 -258 10 -117 13 -216 10 -317 -1
-12 -9 -18 -26 -18 -14 0 -25 -4 -25 -10 0 -5 -19 -9 -42 -9 l-43 2 35 7 35 7
-37 2 c-21 0 -39 2 -40 4 -1 1 -5 72 -9 157 -5 85 -10 180 -12 210 -3 56 -23
110 -39 110 -5 0 -7 3 -5 8 3 4 1 45 -3 91 -6 60 -6 89 3 103 9 16 9 22 0 25
-19 7 -16 53 3 53 13 0 15 9 12 46 l-3 45 34 -6 c19 -4 44 -13 57 -21z m-1200
-152 c-12 -12 -14 6 -8 68 l7 65 3 -64 c2 -35 1 -66 -2 -69z m2629 79 c-3 -6
-11 -8 -17 -5 -6 4 -5 9 3 15 16 10 23 4 14 -10z m-2894 -81 c1 -216 -9 -651
-16 -658 -3 -3 -5 55 -5 128 0 73 -2 131 -5 128 -5 -5 -12 -110 -14 -215 l-1
-53 -39 0 c-22 0 -44 -6 -51 -15 -7 -8 -20 -15 -29 -14 -12 0 -11 2 4 9 19 8
19 9 -2 9 -19 1 -22 8 -28 77 -4 41 -5 96 -1 122 3 26 6 93 7 150 1 56 5 105
10 108 5 3 9 -33 9 -80 0 -47 5 -88 10 -91 6 -3 10 0 10 7 0 9 3 9 10 -2 7
-11 10 -1 10 35 0 60 27 296 35 303 3 3 5 -24 6 -59 2 -116 17 -122 18 -6 1
79 -2 107 -11 108 -10 0 -10 2 0 6 7 3 12 23 12 49 0 43 1 44 30 42 l30 -2 1
-86z m2929 20 c-5 -17 -6 -38 -3 -46 3 -8 0 -14 -5 -14 -16 0 -28 73 -13 78 6
2 11 16 12 30 0 26 1 26 9 5 5 -13 5 -35 0 -53z m-1940 -71 c0 -10 -4 -19 -10
-19 -5 0 -10 12 -10 26 0 14 4 23 10 19 6 -3 10 -15 10 -26z m809 -6 c1 -40
12 -110 21 -138 14 -43 50 -210 60 -280 9 -60 22 -137 59 -340 11 -60 20 -129
20 -152 0 -24 2 -47 6 -52 3 -5 1 -12 -5 -16 -8 -5 -13 35 -9 71 0 3 -7 11
-16 18 -9 7 -16 19 -14 27 1 7 -3 25 -9 39 -21 43 -61 200 -51 200 5 0 9 5 9
10 0 6 -7 10 -15 10 -8 0 -15 8 -15 18 -1 9 -11 46 -24 82 -61 169 -68 191
-61 208 6 14 10 12 23 -15 8 -18 21 -34 29 -37 11 -5 11 -1 2 15 -8 16 -8 23
1 29 10 6 10 18 0 58 -6 28 -13 89 -15 135 -1 47 -6 90 -9 96 -4 6 -4 16 -1
21 9 15 14 12 14 -7z m-106 -119 c1 -16 5 -31 9 -34 3 -3 9 -23 13 -45 6 -40
6 -39 -19 15 -26 56 -36 124 -16 104 6 -6 12 -24 13 -40z m377 -44 c21 0 41 6
43 13 3 6 6 0 6 -14 1 -15 4 -41 7 -58 4 -20 3 -31 -5 -31 -6 0 -10 8 -9 18 5
59 0 64 -47 60 -44 -3 -45 -3 -44 27 1 23 3 25 6 8 4 -19 11 -23 43 -23z
m-2519 -3 c-10 -9 -11 -8 -5 6 3 10 9 15 12 12 3 -3 0 -11 -7 -18z m2693 -114
c8 -49 18 -127 22 -176 4 -48 11 -90 16 -93 4 -3 6 -10 3 -15 -4 -5 0 -9 7 -9
7 -1 2 -7 -12 -15 -17 -10 -20 -14 -9 -15 16 0 27 -67 30 -180 1 -43 1 -43 10
-15 5 17 5 53 0 84 -5 30 -5 66 -1 80 7 22 9 19 15 -27 4 -30 11 -49 15 -42 4
6 4 31 0 55 -7 46 -1 55 40 55 22 0 27 -30 36 -227 l7 -152 -44 5 c-24 3 -45
9 -47 14 -2 5 -10 6 -18 3 -11 -4 -14 -22 -13 -70 2 -62 3 -65 30 -75 16 -5
29 -14 29 -19 0 -5 9 -9 20 -9 10 0 24 -9 30 -19 11 -22 13 -142 3 -180 -6
-23 -7 -23 -13 -6 -4 11 -10 -34 -14 -100 -9 -138 -13 -184 -22 -205 -6 -13
-14 -62 -16 -97 -1 -7 -5 -13 -10 -13 -5 0 -8 30 -7 68 2 37 2 123 0 192 -3
119 -4 122 -13 65 -5 -33 -6 -81 -3 -106 5 -45 -9 -109 -25 -109 -14 0 -21 32
-15 74 3 23 7 160 10 306 3 218 1 294 -15 430 -11 91 -22 203 -25 250 -4 47
-13 148 -21 225 -17 165 -17 168 -5 161 5 -3 16 -45 25 -93z m-2693 67 c12 0
19 -7 19 -20 0 -13 -7 -20 -20 -20 -11 0 -20 6 -20 14 0 8 -2 20 -3 28 -2 7
-2 10 0 6 3 -5 13 -8 24 -8z m2486 -27 c-3 -10 -5 -4 -5 12 0 17 2 24 5 18 2
-7 2 -21 0 -30z m-2750 -5 c-3 -7 -5 -2 -5 12 0 14 2 19 5 13 2 -7 2 -19 0
-25z m570 0 c-3 -7 -5 -2 -5 12 0 14 2 19 5 13 2 -7 2 -19 0 -25z m-347 -22
c0 -12 -4 -26 -9 -31 -5 -6 -12 -39 -16 -75 -3 -36 -9 -84 -11 -106 -4 -25 -2
-44 5 -48 6 -4 11 -2 11 5 0 7 6 20 14 28 14 15 39 167 31 181 -2 3 4 6 14 6
15 0 16 -6 9 -56 -5 -30 -13 -70 -18 -88 -7 -25 -5 -34 5 -38 10 -4 11 -12 6
-27 -5 -12 -9 -26 -10 -32 -5 -42 -15 -75 -22 -75 -5 0 -9 -7 -9 -15 0 -8 -6
-15 -12 -15 -10 0 -10 -2 0 -9 11 -7 8 -26 -15 -99 -29 -94 -36 -102 -90 -102
-20 0 -23 5 -23 35 0 19 5 66 12 105 l12 71 36 -2 c19 -1 43 2 53 6 32 14 17
25 -34 25 l-51 0 7 53 c10 68 43 194 61 231 8 17 17 47 20 68 7 40 24 43 24 4z
m589 -171 c-7 -88 -12 -164 -11 -170 1 -5 -4 -1 -13 9 -8 11 -11 24 -6 30 5 6
9 49 10 96 1 95 9 182 18 220 l7 25 4 -25 c2 -14 -2 -97 -9 -185z m1996 165
c38 0 45 -12 45 -75 0 -38 6 -81 26 -173 2 -13 9 -20 15 -17 5 4 8 14 5 23 -2
10 -7 46 -10 82 -5 61 -4 63 7 28 7 -20 12 -69 12 -109 l0 -73 -35 -7 c-19 -4
-39 -4 -43 0 -16 16 -58 197 -62 271 -3 41 -3 69 1 63 3 -7 21 -13 39 -13z
m226 -57 c8 -30 15 -40 26 -36 12 5 14 -2 11 -32 -2 -24 2 -40 10 -43 6 -2 12
-10 12 -17 0 -7 6 -16 13 -19 6 -3 1 -3 -13 0 -14 3 -20 2 -14 -3 19 -14 34
-50 32 -77 -2 -22 -7 -26 -33 -26 -30 0 -31 2 -33 43 -2 23 -7 67 -12 97 -9
60 -22 207 -14 175 3 -11 9 -39 15 -62z m-3081 53 c0 -8 8 -16 18 -18 18 -3
18 -8 -4 -123 -13 -66 -26 -137 -29 -157 l-6 -38 -59 0 -60 0 0 71 c0 75 24
179 42 179 5 0 8 -7 4 -15 -3 -8 -1 -15 4 -15 11 0 14 20 11 63 -2 24 1 27 28
27 24 0 31 4 31 20 0 11 5 20 10 20 6 0 10 -6 10 -14z m-363 -98 c-3 -7 -5 -2
-5 12 0 14 2 19 5 13 2 -7 2 -19 0 -25z m3500 0 c-3 -7 -5 -2 -5 12 0 14 2 19
5 13 2 -7 2 -19 0 -25z m3 -48 c0 -5 -5 -10 -11 -10 -5 0 -7 5 -4 10 3 6 8 10
11 10 2 0 4 -4 4 -10z m-2713 -32 c-3 -8 -6 -5 -6 6 -1 11 2 17 5 13 3 -3 4
-12 1 -19z m2042 -75 c22 -72 18 -83 -27 -83 -18 0 -22 4 -18 18 3 9 8 43 12
75 3 31 8 57 10 57 2 0 12 -30 23 -67z m-1934 -31 c1 -13 -2 -21 -9 -19 -6 2
-12 24 -13 48 -2 39 -1 41 8 19 6 -14 12 -35 14 -48z m-898 -28 c-3 -3 -12 -4
-19 -1 -8 3 -5 6 6 6 11 1 17 -2 13 -5z m3331 -61 c6 -21 13 -77 17 -125 4
-72 2 -88 -9 -88 -9 0 -27 41 -51 118 -21 64 -40 120 -42 125 -2 4 13 7 35 7
36 0 40 -2 50 -37z m-3044 6 l44 -11 -4 -76 c-2 -43 -4 -79 -5 -82 -4 -14 -6
-28 -7 -57 -1 -21 -7 -33 -16 -33 -8 0 -18 -5 -22 -12 -4 -7 -3 -8 4 -4 7 4
12 2 12 -4 0 -6 4 -9 9 -6 7 5 8 -13 2 -46 0 -5 -21 -8 -46 -8 -44 0 -45 1
-46 33 -1 17 -1 35 -1 38 1 4 2 68 3 143 1 151 -3 144 73 125z m269 4 c-7 -2
-21 -2 -30 0 -10 3 -4 5 12 5 17 0 24 -2 18 -5z m646 -40 c-1 -42 -2 -44 -9
-21 -7 25 -3 68 6 68 2 0 4 -21 3 -47z m-119 -20 c-1 -32 -4 -88 -7 -124 l-5
-66 -36 19 c-20 10 -47 18 -59 18 -13 0 -23 6 -23 14 0 8 -5 18 -12 22 -8 5
-9 2 -4 -12 4 -10 3 -15 -1 -10 -10 10 -11 56 -1 56 4 0 8 5 8 11 0 5 -5 7
-12 3 -7 -5 -8 -3 -2 7 11 18 5 62 -10 71 -7 5 -4 8 7 8 10 0 15 4 12 10 -3 5
4 12 17 14 13 3 32 7 43 9 11 3 35 5 53 6 l33 1 -1 -57z m27 20 c-3 -10 -5 -4
-5 12 0 17 2 24 5 18 2 -7 2 -21 0 -30z m1572 21 c2 -1 -3 -47 -10 -101 l-14
-97 -35 -9 c-69 -16 -64 -22 -73 97 -7 86 -6 111 5 117 11 7 117 2 127 -7z
m211 -59 c13 -41 22 -77 19 -79 -2 -2 -37 -6 -78 -9 l-73 -6 6 57 c13 113 13
112 60 112 l42 0 24 -75z m-2911 -213 c1 -160 0 -173 -16 -170 -23 4 -31 65
-32 242 -1 110 1 127 14 122 12 -4 15 4 16 37 l2 42 7 -50 c5 -27 9 -128 9
-223z m805 191 c9 -38 19 -76 22 -85 5 -16 -2 -18 -55 -18 l-60 0 2 30 c1 16
5 30 8 30 3 0 16 25 30 55 13 30 27 55 30 55 4 0 14 -30 23 -67z m2993 10 c-5
-28 17 -55 38 -47 9 4 16 -4 21 -23 6 -26 20 -42 35 -43 3 0 4 15 2 33 l-3 32
10 -30 c6 -16 11 -97 12 -180 0 -97 5 -153 12 -157 6 -4 -3 -8 -20 -8 -16 0
-39 6 -49 14 -11 8 -25 11 -33 8 -23 -8 -29 14 -30 111 -1 51 -4 146 -8 211
-5 93 -4 117 6 111 6 -4 10 -18 7 -32z m-2437 -88 c76 -197 338 -732 386 -790
l25 -30 -21 55 c-22 58 -71 252 -65 258 1 2 13 -17 26 -42 12 -25 26 -46 30
-46 3 0 12 -15 20 -32 7 -18 16 -35 20 -38 3 -3 13 -18 22 -35 30 -60 247
-341 247 -321 0 3 -7 24 -16 46 -9 23 -15 42 -13 45 2 2 22 -23 44 -56 22 -32
42 -59 45 -59 4 0 4 15 3 33 -2 17 0 52 4 76 l8 44 43 -56 c42 -56 68 -74 58
-39 -23 75 -40 219 -26 227 4 2 29 -43 56 -100 26 -58 51 -105 56 -105 4 0 5
8 2 18 -3 9 5 -1 17 -23 20 -35 23 -38 30 -20 4 11 17 88 30 170 27 180 35
202 45 117 3 -34 9 -60 12 -57 3 3 13 68 22 145 13 103 22 146 35 160 23 25
35 25 35 0 0 -11 5 -20 10 -20 6 0 10 5 10 10 0 6 4 10 8 10 5 0 14 -21 20
-47 l11 -48 -5 56 c-5 51 -2 60 21 85 l26 29 -4 -25 c-3 -14 -9 -60 -12 -102
-5 -50 -11 -75 -18 -71 -6 4 -8 -2 -4 -18 4 -13 7 -33 8 -44 2 -43 19 42 30
156 l13 118 60 46 c84 62 132 74 106 25 -20 -38 -24 -63 -24 -170 0 -121 17
-170 78 -234 20 -22 36 -36 36 -33 0 3 3 13 7 23 4 12 3 15 -5 10 -18 -11 -14
0 5 15 15 12 16 12 8 -1 -4 -8 -4 -12 0 -7 11 10 15 37 6 37 -4 0 -13 -6 -21
-12 -12 -11 -12 -10 -4 2 19 28 11 45 -21 42 l-30 -2 28 15 c33 19 35 29 5 20
-16 -4 -19 -4 -9 3 7 5 10 15 7 21 -4 6 -1 11 6 11 10 0 10 2 -1 9 -10 6 -10
10 -1 16 6 4 19 0 29 -9 23 -21 34 -20 56 4 18 20 18 21 0 14 -13 -5 -16 -4
-11 4 4 8 0 12 -11 12 -15 0 -15 2 -4 9 11 7 22 2 38 -15 13 -14 23 -22 23
-18 0 3 6 1 14 -5 11 -9 15 -9 19 1 4 10 7 11 18 1 20 -19 31 -15 19 6 -16 31
-12 37 10 13 12 -12 25 -22 31 -22 6 0 7 -4 4 -10 -3 -5 0 -7 9 -4 8 3 25 -1
37 -9 12 -9 27 -13 34 -11 7 3 28 -2 45 -11 18 -9 29 -12 26 -6 -11 17 -2 13
24 -9 30 -26 36 -25 54 8 l15 27 -1 -42 -1 -42 -29 15 c-18 10 -28 11 -28 3 0
-6 8 -13 18 -16 10 -2 24 -13 30 -24 12 -19 11 -19 -10 -8 -22 12 -22 11 -8
-6 14 -17 13 -18 -5 -11 -16 6 -14 2 8 -22 26 -27 28 -34 25 -101 l-3 -73 -55
-33 c-74 -46 -151 -57 -289 -44 -58 5 -127 16 -153 23 -25 7 -52 10 -59 5 -8
-5 1 -11 27 -18 128 -33 207 -50 214 -46 5 3 10 1 12 -4 1 -5 19 -10 38 -12
19 -2 41 -7 48 -12 8 -6 12 -5 12 2 0 14 57 15 65 1 9 -15 25 -12 19 4 -7 19
48 31 75 16 17 -9 21 -8 21 5 0 8 4 15 9 15 5 0 9 -25 8 -55 -2 -56 6 -72 18
-35 10 31 19 24 33 -23 10 -31 10 -50 3 -71 -14 -36 -14 -39 4 -32 17 6 18 -7
16 -174 l-2 -105 -67 -62 c-93 -87 -186 -141 -275 -159 -39 -8 -74 -17 -76
-20 -2 -2 43 -4 102 -4 113 0 224 26 295 70 71 44 9 -55 -97 -153 -60 -57 -42
-55 59 3 59 35 65 37 68 19 2 -10 -11 -70 -29 -132 -37 -127 -78 -196 -188
-311 -91 -94 -293 -263 -413 -344 -25 -18 -54 -40 -64 -49 -10 -10 -20 -18
-23 -17 -11 1 -61 -31 -61 -38 0 -5 -6 -8 -13 -8 -7 0 -23 -9 -35 -21 -13 -11
-31 -22 -41 -24 -10 -2 -65 -34 -122 -71 -286 -186 -452 -274 -532 -282 -31
-3 -63 1 -95 13 -45 17 -253 117 -317 152 -16 9 -93 45 -170 80 -157 71 -274
136 -418 232 -54 36 -106 71 -115 76 -9 6 -23 17 -32 26 -8 9 -55 49 -103 89
-49 40 -97 89 -107 109 -10 20 -42 59 -70 86 -95 92 -159 208 -160 288 l0 48
30 -16 c38 -20 38 -9 0 41 -27 35 -39 74 -24 74 3 0 20 -11 36 -25 41 -35 46
-25 12 21 -26 33 -29 46 -29 110 0 40 4 72 9 71 5 -1 17 32 27 73 10 41 25 93
33 115 44 122 88 300 82 337 -6 33 -4 38 14 38 11 0 20 -7 20 -15 0 -14 3 -13
25 1 15 9 36 14 51 11 15 -2 38 1 53 8 14 8 61 19 104 25 81 12 182 38 175 45
-8 9 -65 7 -123 -4 -33 -6 -116 -11 -183 -12 -124 0 -124 0 -198 37 -52 27
-99 63 -158 120 -75 73 -84 86 -90 128 -4 26 -4 72 0 104 l8 57 16 -80 17 -80
7 60 c18 142 49 321 58 332 11 13 116 38 125 29 3 -3 0 -27 -6 -53 -20 -79
-22 -191 -4 -253 22 -79 124 -208 166 -210 4 0 7 5 7 11 0 5 -5 7 -12 3 -7 -5
-9 -2 -5 9 4 11 2 14 -9 10 -10 -4 -12 0 -7 13 4 12 3 15 -6 9 -11 -6 -11 -3
0 16 11 22 11 23 -4 11 -13 -11 -15 -10 -10 9 4 13 2 20 -4 16 -5 -3 -10 0
-10 8 0 8 5 11 10 8 6 -3 7 -1 3 5 -4 7 -8 27 -10 45 -3 30 -1 33 24 32 21 0
26 -4 23 -20 -4 -20 -4 -20 11 -1 8 10 13 23 10 27 -3 5 2 6 10 3 9 -3 14 -10
11 -15 -3 -4 5 -6 17 -4 13 3 24 9 26 13 1 5 26 5 54 2 29 -4 60 -5 70 -2 20
5 25 -14 6 -20 -6 -2 19 -2 55 0 56 4 67 2 67 -11 0 -25 22 -32 36 -12 25 34
43 -23 18 -59 -8 -11 -10 -26 -5 -40 5 -11 6 -26 4 -32 -2 -6 3 -14 12 -18 11
-4 14 -2 9 6 -5 8 -2 9 10 5 14 -6 17 -3 12 8 -3 9 -2 14 3 11 14 -9 73 64 66
82 -3 8 1 22 9 31 15 17 16 19 16 49 0 14 3 13 18 -6 17 -22 18 -22 19 -2 1
11 -2 18 -6 15 -9 -5 -46 73 -68 144 l-13 45 30 -29 c17 -16 31 -40 31 -54 1
-17 3 -20 6 -8 7 25 18 21 57 -18 20 -19 39 -35 44 -35 5 0 13 -17 20 -37 10
-35 10 -32 6 27 -15 188 -19 259 -16 294 3 34 6 38 27 34 16 -4 22 -1 18 9 -3
7 -9 13 -13 13 -18 0 -19 36 -5 132 9 55 23 113 32 128 15 26 17 27 33 11 9
-9 27 -43 40 -76z m-1490 -50 c7 -49 14 -138 15 -197 2 -59 6 -112 9 -117 9
-15 -12 -24 -65 -28 -57 -4 -57 -5 -57 122 0 61 3 80 8 60 l8 -30 1 28 c1 17
7 27 16 27 12 0 15 -13 15 -57 0 -77 10 -131 24 -136 9 -4 10 13 4 62 -11 101
-10 261 2 261 7 0 8 19 4 53 -4 28 -4 50 -1 47 2 -3 10 -45 17 -95z m1290 43
c0 -5 -7 -8 -15 -8 -10 0 -15 10 -15 27 0 26 1 26 15 7 8 -10 15 -22 15 -26z
m1798 -56 c-5 -2 -5 -8 -2 -14 5 -7 -1 -9 -17 -5 -20 5 -102 -18 -171 -48 -27
-11 -22 12 7 39 14 13 56 40 93 59 l67 36 15 -32 c9 -18 12 -34 8 -35z m-3138
4 c0 -41 -1 -43 -25 -38 -18 3 -25 11 -25 26 1 21 1 21 17 1 15 -20 15 -20 10
3 -3 12 -1 20 4 16 5 -3 9 4 9 15 0 12 2 21 5 21 3 0 5 -20 5 -44z m940 -11
c22 -14 44 -25 49 -25 5 0 13 -6 19 -12 8 -10 -7 -12 -74 -10 -46 2 -84 8 -84
13 0 15 31 59 41 59 5 0 27 -11 49 -25z m287 3 l42 -21 3 -81 c2 -45 2 -83 1
-85 -4 -6 -118 95 -118 105 0 5 -3 14 -7 19 -6 10 -11 50 -9 70 2 18 44 15 88
-7z m-471 -20 c-8 -38 -6 -36 -42 -44 -29 -5 -30 -4 -31 28 0 38 10 48 51 48
27 0 28 -2 22 -32z m631 10 c-3 -8 -6 -5 -6 6 -1 11 2 17 5 13 3 -3 4 -12 1
-19z m1463 -12 c0 -66 -12 -97 -44 -117 -39 -24 -48 -11 -44 68 3 54 4 57 38
69 50 18 50 18 50 -20z m700 4 c0 -11 -2 -20 -4 -20 -2 0 -6 9 -9 20 -3 11 -1
20 4 20 5 0 9 -9 9 -20z m-2455 -40 c3 -6 -1 -7 -9 -4 -18 7 -21 14 -7 14 6 0
13 -4 16 -10z m3069 -51 c13 -69 5 -119 -21 -119 -10 0 -13 6 -9 16 3 9 6 42
6 75 0 63 13 79 24 28z m-3705 -15 c6 -6 -1 -11 -26 -18 -19 -6 -23 -4 -23 14
0 18 4 20 23 14 12 -3 24 -8 26 -10z m2840 -37 c0 -33 -2 -38 -9 -22 -12 28
-12 78 0 70 6 -3 10 -25 9 -48z m-3372 -69 c-2 -18 -4 -6 -4 27 0 33 2 48 4
33 2 -15 2 -42 0 -60z m1450 40 c-3 -8 -6 -5 -6 6 -1 11 2 17 5 13 3 -3 4 -12
1 -19z m-667 0 c-1 -7 -7 -40 -14 -73 l-14 -60 -2 45 c-1 25 -3 54 -5 64 -2
11 -2 23 1 28 8 13 34 9 34 -4z m610 -19 c0 -5 -4 -9 -8 -9 -5 0 -9 7 -9 15 0
8 4 12 9 9 4 -3 8 -9 8 -15z m1470 -4 c-7 -9 -15 -13 -17 -11 -7 7 7 26 19 26
6 0 6 -6 -2 -15z m371 -13 c-26 -49 -57 -51 -66 -4 -3 20 0 22 36 22 35 0 39
-2 30 -18z m-2983 -39 c-4 -23 -28 -29 -28 -7 0 10 -8 26 -17 37 -18 20 -18
20 15 3 21 -11 32 -23 30 -33z m273 -55 c-17 -87 -28 -82 -30 14 -1 44 12 66
40 68 3 0 -1 -37 -10 -82z m319 36 c0 -19 -5 -24 -25 -24 -20 0 -25 5 -25 24
0 13 6 26 13 29 22 7 37 -4 37 -29z m3394 21 c4 -11 -1 -15 -19 -15 -18 0 -23
4 -19 15 4 8 12 15 19 15 7 0 15 -7 19 -15z m-164 1 c0 -3 -4 -8 -10 -11 -5
-3 -10 -1 -10 4 0 6 5 11 10 11 6 0 10 -2 10 -4z m-4070 -46 c0 -11 -4 -20 -9
-20 -5 0 -7 9 -4 20 3 11 7 20 9 20 2 0 4 -9 4 -20z m4226 -62 c-3 -29 -6 -88
-6 -131 0 -48 -4 -76 -10 -72 -5 3 -10 -9 -10 -27 -2 -58 -5 -88 -10 -88 -3 0
-6 -19 -7 -43 -2 -23 -8 -52 -15 -65 -10 -19 -9 -25 1 -31 10 -6 10 -10 2 -16
-7 -4 -11 -14 -10 -23 4 -28 -12 -92 -23 -92 -5 0 -6 -5 -3 -10 4 -6 3 -19 -1
-28 -9 -20 -9 -20 -18 -54 -5 -16 -13 -25 -19 -21 -6 4 -8 -2 -5 -15 4 -12 2
-22 -4 -22 -5 0 -7 -4 -4 -9 3 -5 -8 -36 -26 -70 -22 -43 -34 -58 -40 -49 -6
9 -7 5 -3 -9 4 -16 -9 -47 -51 -115 -65 -107 -126 -182 -187 -230 -42 -32 -37
-22 15 36 15 16 44 54 65 85 34 51 66 95 93 128 6 7 9 16 8 20 -1 4 6 21 16
36 11 16 21 46 23 68 3 32 1 38 -12 33 -13 -5 -12 2 6 42 12 27 28 71 35 97 8
26 18 46 22 43 4 -2 7 8 8 22 0 15 4 35 9 46 6 14 5 18 -6 14 -8 -2 -23 -29
-34 -59 -25 -67 -107 -228 -148 -290 -22 -34 -35 -45 -48 -42 -10 3 -16 9 -13
14 3 5 9 7 13 5 4 -3 8 11 9 32 1 20 6 38 12 40 6 2 8 7 5 12 -3 4 2 13 10 20
8 7 15 22 15 34 0 15 3 17 9 8 6 -9 8 -5 8 15 0 30 11 81 19 95 3 5 8 25 10
45 3 20 8 41 12 47 3 6 8 29 9 50 2 22 8 43 13 46 6 4 10 11 9 16 -1 5 -1 25
1 44 1 28 3 31 9 15 6 -14 9 -1 9 40 0 33 12 119 26 190 14 72 26 141 28 154
3 22 8 24 58 25 l55 1 -2 -35 -2 -35 10 32 c5 17 17 34 27 36 12 3 10 5 -7 6
l-23 1 23 20 c42 34 53 27 45 -32z m-4211 -215 c9 -94 17 -179 19 -190 2 -10
6 -47 9 -83 l6 -65 -14 50 c-7 28 -14 62 -14 78 -1 15 -6 26 -13 25 -16 -4
-25 51 -33 215 -6 107 -5 148 6 180 l14 42 3 -40 c1 -22 9 -117 17 -212z m390
2 c7 -26 3 -24 -29 20 -34 48 -36 54 -36 131 0 44 3 84 7 87 4 4 17 -41 29
-100 12 -60 25 -121 29 -138z m1046 189 c21 -50 21 -72 0 -26 -8 15 -17 35
-22 44 -10 20 -11 28 -4 28 3 0 15 -21 26 -46z m-1381 16 c11 -11 20 -24 20
-30 0 -5 5 -10 11 -10 5 0 7 5 4 10 -10 16 7 12 38 -9 l29 -19 -23 -16 c-13
-9 -29 -16 -35 -16 -8 0 -11 -13 -9 -36 4 -45 15 -57 15 -17 0 28 14 43 40 43
5 0 12 -21 15 -47 4 -27 11 -61 15 -78 5 -16 12 -48 14 -70 8 -59 18 -99 26
-110 5 -5 11 -28 15 -50 12 -63 26 -78 21 -20 -3 28 -10 98 -15 157 -6 59 -11
115 -13 125 -2 10 4 19 15 21 14 3 17 -4 17 -36 0 -21 4 -63 10 -93 5 -30 15
-89 22 -131 6 -43 16 -78 20 -78 4 0 8 -5 8 -11 0 -5 -4 -7 -10 -4 -13 8 -8
-38 5 -47 5 -4 11 -18 12 -30 2 -31 46 -192 94 -349 37 -123 102 -271 149
-341 l22 -33 -31 35 c-41 45 -86 111 -112 162 -34 67 -32 36 4 -48 50 -117 81
-175 122 -229 l37 -48 -44 32 c-74 53 -221 199 -166 165 7 -4 8 -3 4 4 -4 7
-17 12 -29 13 -12 0 -16 3 -9 6 10 4 9 9 -5 20 -10 8 -12 11 -4 7 8 -4 3 8
-11 27 -14 19 -38 58 -52 87 -15 28 -31 52 -36 52 -6 0 -9 3 -8 8 4 19 -16 62
-29 62 -7 0 -13 6 -12 13 4 31 -2 58 -11 52 -6 -4 -10 -3 -8 2 5 20 -17 102
-39 146 -13 26 -28 71 -34 100 -12 58 -13 65 -22 87 -22 60 -76 438 -77 538 0
56 9 63 40 32z m344 -57 c-10 -40 -14 -41 -14 -5 0 18 5 32 10 32 6 0 8 -11 4
-27z m86 1 c0 -8 -19 -13 -24 -6 -3 5 1 9 9 9 8 0 15 -2 15 -3z m-13 -66 c-3
-7 -5 -2 -5 12 0 14 2 19 5 13 2 -7 2 -19 0 -25z m-62 -8 c1 -30 -7 -32 -11
-3 -2 14 3 33 9 33 1 0 2 -13 2 -30z m825 -125 c9 -11 9 -15 1 -15 -7 0 -9 -4
-6 -10 10 -16 -11 -12 -25 5 -11 13 -10 14 6 8 17 -6 17 -5 5 10 -7 9 -9 17
-3 17 5 0 15 -7 22 -15z m2397 -132 c-3 -10 -5 -4 -5 12 0 17 2 24 5 18 2 -7
2 -21 0 -30z m-3180 -13 c-4 -16 0 -20 19 -20 15 0 27 -7 30 -17 9 -29 21 -48
30 -48 17 -1 64 -37 64 -50 0 -7 -7 -15 -15 -19 -8 -3 -15 -10 -15 -16 0 -8 6
-8 20 0 28 15 25 2 -15 -57 -19 -28 -47 -77 -63 -110 -33 -68 -54 -103 -63
-103 -3 0 -2 24 2 53 13 80 12 262 -1 302 -11 34 -7 105 7 105 3 0 3 -9 0 -20z
m-118 -85 l-1 -50 -9 40 c-4 22 -8 51 -8 65 -1 20 1 22 9 10 5 -8 9 -37 9 -65z
m3450 -22 c16 -14 24 -40 35 -108 15 -97 14 -100 -36 -111 -35 -8 -26 -24 12
-24 20 0 33 7 41 22 10 19 12 19 21 5 11 -20 -5 -53 -75 -159 l-52 -76 -18 56
c-30 95 -40 182 -26 224 13 39 29 42 29 5 0 -12 5 -29 10 -37 8 -10 9 7 4 57
-8 86 2 163 21 163 7 0 22 -8 34 -17z m-3111 -102 c32 -28 40 -118 17 -197
-26 -93 -115 -325 -138 -363 l-20 -33 -14 26 c-22 41 -83 206 -92 248 -8 33
-7 37 5 27 12 -10 22 6 60 87 64 135 122 220 154 223 3 0 15 -8 28 -18z m3611
-38 c0 -10 -4 -27 -9 -38 -7 -16 -9 -13 -9 18 -1 20 4 37 9 37 6 0 10 -8 9
-17z m-3871 -224 c-3 -8 -7 -3 -11 10 -4 17 -3 21 5 13 5 -5 8 -16 6 -23z
m3809 -11 c-3 -8 -6 -5 -6 6 -1 11 2 17 5 13 3 -3 4 -12 1 -19z m43 -40 c0
-31 -29 -110 -30 -82 0 12 -6 24 -14 27 -22 9 1 77 26 77 12 0 18 -7 18 -22z
m-542 -74 c-3 -3 -2 -20 2 -39 4 -19 5 -34 1 -33 -28 3 -54 -35 -45 -68 10
-40 -189 -134 -282 -134 l-38 0 59 30 c83 42 185 121 248 191 28 32 54 59 56
59 2 0 2 -2 -1 -6z m495 -58 c-1 -26 -6 -52 -11 -59 -8 -10 -9 -22 -3 -69 1
-4 9 -9 20 -13 22 -7 26 -55 5 -55 -8 0 -11 7 -8 18 5 15 4 15 -10 -2 -8 -10
-20 -15 -27 -10 -8 4 -10 3 -5 -4 4 -7 20 -12 37 -12 18 0 29 -5 29 -14 0 -8
6 -17 13 -19 6 -3 -12 -6 -40 -6 -46 -1 -53 -4 -53 -21 0 -11 -4 -20 -9 -20
-15 0 -20 43 -10 85 5 22 12 55 15 74 4 18 15 59 25 89 22 63 22 65 10 58 -5
-4 -7 3 -4 14 10 38 28 14 26 -34z m286 -75 c1 -117 0 -122 -36 -213 -52 -128
-54 -88 -9 141 20 99 36 182 36 185 0 3 2 6 4 6 2 0 4 -54 5 -119z m-799 9 c0
-5 -4 -10 -10 -10 -5 0 -10 5 -10 10 0 6 5 10 10 10 6 0 10 -4 10 -10z m70
-179 c-16 -44 -47 -123 -70 -175 -22 -52 -40 -100 -40 -107 0 -7 -2 -10 -5 -7
-3 3 6 70 20 149 l25 143 42 38 c24 20 46 37 50 38 4 0 -6 -36 -22 -79z m-67
45 c7 4 10 5 7 2 -8 -9 -93 -73 -110 -83 -16 -9 -17 -10 40 57 13 15 27 25 32
22 5 -3 8 -2 7 3 -3 18 4 27 8 10 3 -10 10 -14 16 -11z m-3333 -73 l73 -86
-13 -65 c-12 -61 -8 -259 7 -321 l6 -24 13 24 c12 22 13 22 14 4 0 -17 2 -18
11 -5 9 12 10 11 6 -7 -3 -13 -1 -23 4 -23 5 0 9 7 9 17 0 9 3 13 7 10 9 -9
16 -87 16 -182 0 -112 -35 -183 -140 -287 l-78 -78 -45 35 c-25 19 -53 42 -63
52 -11 10 -22 17 -26 16 -10 -2 -12 25 -14 253 -1 140 -6 216 -13 225 -8 9
-11 51 -10 114 2 99 3 101 54 201 29 55 52 106 52 112 0 25 28 17 69 -22 l44
-41 -27 45 c-42 69 -49 87 -43 104 4 9 8 16 11 16 2 0 36 -39 76 -87z m3883
-140 c-7 -2 -19 -2 -25 0 -7 3 -2 5 12 5 14 0 19 -2 13 -5z m-50 -113 c3 -11
1 -20 -4 -20 -5 0 -9 9 -9 20 0 11 2 20 4 20 2 0 6 -9 9 -20z m163 -5 c-1 -30
-2 -31 -17 -4 -8 15 -8 19 0 15 6 -4 11 -2 11 3 0 6 2 11 4 11 2 0 3 -11 2
-25z m1 -65 c-1 -11 -5 -20 -10 -20 -5 0 -5 10 -2 21 5 16 4 19 -5 14 -9 -5
-11 -4 -6 4 10 16 25 4 23 -19z m-4675 -107 c5 -7 7 -17 3 -22 -3 -6 -1 -20 5
-31 6 -11 13 -33 15 -48 19 -137 135 -485 216 -643 44 -89 52 -72 -78 -162
l-81 -57 -24 39 c-13 22 -43 73 -69 113 -25 40 -58 103 -74 141 -23 52 -31 63
-37 50 -11 -26 3 112 18 182 8 33 26 121 41 195 15 74 31 138 36 141 13 9 11
20 -5 30 -10 7 -10 9 0 9 8 0 11 9 8 25 -3 14 -2 42 2 63 5 31 7 33 10 12 2
-14 8 -30 14 -37z m3938 -28 c0 -1 -9 -12 -19 -24 -13 -15 -20 -18 -24 -9 -7
20 12 48 28 42 8 -4 15 -7 15 -9z m-40 -248 c-8 -7 -26 -33 -39 -59 -14 -26
-29 -45 -33 -42 -8 5 7 43 21 54 4 3 14 17 24 33 10 15 23 27 30 27 8 -1 7 -5
-3 -13z m-103 -189 c-3 -7 -5 -2 -5 12 0 14 2 19 5 13 2 -7 2 -19 0 -25z
m-3207 -187 c0 -5 -9 -13 -20 -16 -11 -4 -18 -11 -15 -16 4 -5 2 -9 -4 -9 -23
0 -20 20 6 34 34 18 33 18 33 7z m-703 -43 c-3 -7 -5 -2 -5 12 0 14 2 19 5 13
2 -7 2 -19 0 -25z m3940 -200 c-3 -7 -5 -2 -5 12 0 14 2 19 5 13 2 -7 2 -19 0
-25z"/>
<path d="M2831 3854 c0 -11 3 -14 6 -6 3 7 2 16 -1 19 -3 4 -6 -2 -5 -13z"/>
<path d="M2918 3403 c7 -3 16 -2 19 1 4 3 -2 6 -13 5 -11 0 -14 -3 -6 -6z"/>
<path d="M2952 2710 c0 -14 2 -19 5 -12 2 6 2 18 0 25 -3 6 -5 1 -5 -13z"/>
<path d="M1770 4100 c0 -22 5 -40 10 -40 6 0 10 18 10 40 0 22 -4 40 -10 40
-5 0 -10 -18 -10 -40z"/>
<path d="M4165 3259 c-4 -6 -5 -12 -2 -15 2 -3 7 2 10 11 7 17 1 20 -8 4z"/>
<path d="M4171 3174 c0 -11 3 -14 6 -6 3 7 2 16 -1 19 -3 4 -6 -2 -5 -13z"/>
<path d="M4170 3079 c0 -5 5 -7 10 -4 6 3 10 8 10 11 0 2 -4 4 -10 4 -5 0 -10
-5 -10 -11z"/>
<path d="M1802 2650 c0 -14 2 -19 5 -12 2 6 2 18 0 25 -3 6 -5 1 -5 -13z"/>
<path d="M1566 2545 c-9 -26 -7 -32 5 -12 6 10 9 21 6 23 -2 3 -7 -2 -11 -11z"/>
<path d="M3606 2464 c-9 -24 -7 -28 9 -14 17 14 20 30 6 30 -5 0 -12 -7 -15
-16z"/>
<path d="M3985 2470 c3 -5 8 -10 11 -10 2 0 4 5 4 10 0 6 -5 10 -11 10 -5 0
-7 -4 -4 -10z"/>
<path d="M1595 2404 c0 -12 4 -26 9 -31 5 -5 7 -1 3 9 -4 12 -2 15 8 11 8 -3
12 -10 8 -17 -4 -6 1 -5 10 3 16 12 16 16 2 31 -21 23 -41 21 -40 -6z"/>
<path d="M3700 2394 c0 -8 5 -12 10 -9 6 4 8 11 5 16 -9 14 -15 11 -15 -7z"/>
<path d="M2610 1410 c0 -5 7 -7 15 -4 8 4 15 8 15 10 0 2 -7 4 -15 4 -8 0 -15
-4 -15 -10z"/>
<path d="M2720 1000 c-61 -15 -162 -22 -260 -19 -179 6 -223 2 -273 -20 -27
-12 -47 -26 -45 -33 6 -18 74 -19 121 -3 31 11 59 11 131 4 115 -12 223 -4
353 27 l102 24 69 -19 c51 -14 73 -16 81 -8 18 18 13 27 -24 43 -38 15 -195
18 -255 4z"/>
<path d="M4625 2780 c-3 -6 1 -7 9 -4 18 7 21 14 7 14 -6 0 -13 -4 -16 -10z"/>
<path d="M4480 2671 c0 -5 9 -11 20 -14 13 -3 20 0 20 9 0 8 -9 14 -20 14 -11
0 -20 -4 -20 -9z"/>
<path d="M4375 2121 c-1 -22 3 -37 7 -35 10 7 11 74 1 74 -5 0 -8 -18 -8 -39z"/>
<path d="M561 2474 c0 -11 3 -14 6 -6 3 7 2 16 -1 19 -3 4 -6 -2 -5 -13z"/>
<path d="M1704 5107 c10 -8 17 -18 14 -23 -3 -5 -3 -17 1 -26 5 -14 10 -10 26
20 l21 37 -41 3 c-36 3 -38 2 -21 -11z"/>
<path d="M1861 5104 c0 -11 3 -14 6 -6 3 7 2 16 -1 19 -3 4 -6 -2 -5 -13z"/>
<path d="M2300 5105 c7 -8 16 -15 20 -15 4 0 10 7 14 15 4 11 -2 15 -21 15
-21 0 -24 -2 -13 -15z"/>
<path d="M2674 5093 c2 -15 8 -29 15 -31 6 -2 11 -12 11 -22 0 -63 45 -60 55
3 4 23 9 50 11 60 5 14 -2 17 -45 17 -48 0 -50 -1 -47 -27z"/>
<path d="M5100 5113 c0 -5 5 -15 10 -23 8 -12 10 -11 10 8 0 12 -4 22 -10 22
-5 0 -10 -3 -10 -7z"/>
<path d="M1711 5004 c0 -11 3 -14 6 -6 3 7 2 16 -1 19 -3 4 -6 -2 -5 -13z"/>
<path d="M4806 4942 c3 -13 17 -47 30 -75 13 -29 21 -41 18 -27 -4 14 -17 48
-30 75 -14 28 -22 39 -18 27z"/>
<path d="M3033 4830 c0 -30 2 -43 4 -27 2 15 2 39 0 55 -2 15 -4 2 -4 -28z"/>
<path d="M3042 4730 c0 -19 2 -27 5 -17 2 9 2 25 0 35 -3 9 -5 1 -5 -18z"/>
<path d="M378 4663 c6 -2 18 -2 25 0 6 3 1 5 -13 5 -14 0 -19 -2 -12 -5z"/>
<path d="M2630 4265 c0 -15 6 -25 14 -25 7 0 16 11 18 25 4 19 1 25 -13 25
-14 0 -19 -7 -19 -25z"/>
<path d="M2560 4000 c0 -11 5 -20 10 -20 6 0 10 9 10 20 0 11 -4 20 -10 20 -5
0 -10 -9 -10 -20z"/>
<path d="M2480 3586 c0 -9 5 -16 10 -16 6 0 10 4 10 9 0 6 -4 13 -10 16 -5 3
-10 -1 -10 -9z"/>
<path d="M2493 3480 c3 -54 10 -85 21 -96 9 -8 13 -21 9 -27 -4 -7 0 -8 11 -4
10 4 19 7 21 7 2 0 7 16 11 35 7 40 -15 85 -43 85 -12 0 -14 7 -10 34 4 26 1
36 -10 40 -14 6 -15 -4 -10 -74z"/>
<path d="M2516 2855 c11 -48 25 -76 18 -35 -4 19 -10 42 -15 50 -6 10 -7 5 -3
-15z"/>
<path d="M4087 798 c-20 -23 -34 -44 -32 -46 5 -5 23 14 53 56 32 45 21 40
-21 -10z"/>
<path d="M4123 803 c-7 -3 -13 -12 -13 -21 0 -15 2 -15 17 1 18 18 16 27 -4
20z"/>
<path d="M4630 768 c0 -13 5 -30 10 -38 7 -11 10 -7 10 17 0 17 -4 35 -10 38
-6 3 -10 -4 -10 -17z"/>
<path d="M4668 694 c-12 -11 -10 -42 3 -49 14 -10 16 -4 10 28 -3 16 -9 25
-13 21z"/>
<path d="M4691 674 c0 -11 3 -14 6 -6 3 7 2 16 -1 19 -3 4 -6 -2 -5 -13z"/>
<path d="M4671 564 c0 -11 3 -14 6 -6 3 7 2 16 -1 19 -3 4 -6 -2 -5 -13z"/>
<path d="M3878 535 c-23 -31 -23 -38 1 -23 19 12 36 48 23 48 -4 0 -15 -11
-24 -25z"/>
<path d="M1421 444 c0 -11 3 -14 6 -6 3 7 2 16 -1 19 -3 4 -6 -2 -5 -13z"/>
<path d="M3830 420 c0 -5 5 -10 10 -10 6 0 10 5 10 10 0 6 -4 10 -10 10 -5 0
-10 -4 -10 -10z"/>
<path d="M3787 413 c-4 -3 -7 -11 -7 -17 0 -6 5 -5 12 2 6 6 9 14 7 17 -3 3
-9 2 -12 -2z"/>
<path d="M1420 396 c0 -9 5 -16 10 -16 6 0 10 4 10 9 0 6 -4 13 -10 16 -5 3
-10 -1 -10 -9z"/>
<path d="M1421 305 c-15 -72 -53 -168 -65 -160 -3 3 -4 2 -1 -1 6 -9 -29 -60
-74 -106 -30 -33 -32 -38 -15 -38 11 0 26 6 33 12 11 10 13 10 7 1 -4 -8 -1
-13 7 -13 8 0 18 7 21 16 9 24 8 26 -16 18 -13 -3 -21 -5 -18 -3 3 2 16 13 29
24 14 11 21 14 16 6 -6 -10 -4 -12 4 -7 7 4 11 15 10 24 -1 10 10 42 24 72 31
65 60 171 55 203 -2 12 -9 -9 -17 -48z"/>
<path d="M4496 252 c-2 -4 -7 -22 -11 -39 -8 -38 4 -67 16 -37 6 14 8 9 8 -18
1 -27 -3 -38 -14 -38 -8 0 -15 -9 -15 -19 0 -11 -3 -28 -7 -38 -6 -15 -4 -16
9 -5 20 16 58 120 58 159 0 22 -6 32 -20 36 -11 3 -22 2 -24 -1z"/>
<path d="M4582 180 c0 -19 2 -27 5 -17 2 9 2 25 0 35 -3 9 -5 1 -5 -18z"/>
<path d="M4451 114 c0 -11 3 -14 6 -6 3 7 2 16 -1 19 -3 4 -6 -2 -5 -13z"/>
<path d="M767 83 c-4 -3 -7 -15 -7 -25 0 -13 -8 -18 -28 -18 -16 0 -37 -9 -47
-20 -18 -20 -17 -20 30 -20 43 0 46 1 34 17 -12 15 -12 16 4 10 12 -5 17 -1
17 13 0 14 5 18 17 13 12 -5 15 -2 10 10 -4 12 -2 15 11 11 14 -5 15 -4 2 5
-17 12 -34 14 -43 4z"/>
<path d="M352 44 c-7 -8 -8 -14 -3 -14 10 0 25 19 20 25 -2 1 -10 -3 -17 -11z"/>
<path d="M315 10 c-3 -5 -1 -10 4 -10 6 0 11 5 11 10 0 6 -2 10 -4 10 -3 0 -8
-4 -11 -10z"/>
</g>
</svg>
